<?xml version="1.0" encoding="UTF-8"?>
<svg xmlns="http://www.w3.org/2000/svg" xmlns:xlink="http://www.w3.org/1999/xlink" width="455.8pt" height="227.8pt" viewBox="0 0 455.8 227.8" version="1.1">
<defs>
<clipPath id="clip1">
  <path d="M 0 32 L 222 32 L 222 227.800781 L 0 227.800781 Z M 0 32 "/>
</clipPath>
<clipPath id="clip2">
  <path d="M 234 32 L 455.800781 32 L 455.800781 227.800781 L 234 227.800781 Z M 234 32 "/>
</clipPath>
<clipPath id="clip3">
  <path d="M 234 0 L 455.800781 0 L 455.800781 127 L 234 127 Z M 234 0 "/>
</clipPath>
</defs>
<g id="surface1">
<g clip-path="url(#clip1)" clip-rule="nonzero">
<path style=" stroke:none;fill-rule:evenodd;fill:rgb(0%,52.539063%,26.660156%);fill-opacity:1;" d="M 0.0820313 227.769531 L 221.617188 227.769531 L 221.617188 139.15625 C 196.886719 139.144531 171.683594 136.027344 150.8125 127.550781 C 134.285156 120.839844 110.921875 109.308594 96.34375 99.980469 L 71.664063 83.652344 C 63.644531 78.152344 55.921875 72.136719 47.835938 66.46875 C 39.804688 60.839844 31.882813 55.050781 24.019531 49.265625 C 20.078125 46.367188 16.160156 43.546875 12.09375 40.679688 C 8.148438 37.894531 4.125 34.542969 0.0820313 32.128906 Z M 0.0820313 227.769531 "/>
</g>
<g clip-path="url(#clip2)" clip-rule="nonzero">
<path style=" stroke:none;fill-rule:evenodd;fill:rgb(0%,52.539063%,26.660156%);fill-opacity:1;" d="M 234.28125 227.769531 L 455.808594 227.769531 L 455.808594 32.128906 C 453.617188 33.441406 451.601563 34.980469 449.523438 36.535156 L 431.652344 49.425781 C 427.785156 52.347656 423.699219 55.136719 419.761719 58.039063 L 383.996094 83.804688 C 365.835938 96.515625 353.148438 104.351563 332.957031 114.78125 C 299.332031 132.152344 274.992188 139.136719 234.28125 139.15625 Z M 234.28125 227.769531 "/>
</g>
<g clip-path="url(#clip3)" clip-rule="nonzero">
<path style=" stroke:none;fill-rule:evenodd;fill:rgb(12.939453%,24.31488%,49.414063%);fill-opacity:1;" d="M 455.808594 -0.09375 L 234.277344 -0.09375 L 234.277344 126.46875 C 261.558594 126.46875 281.914063 123.1875 304.792969 113.96875 C 314.097656 110.222656 324.335938 105.078125 332.820313 100.589844 C 344.277344 94.53125 360.910156 84.734375 371.335938 77.21875 C 375.417969 74.273438 379.417969 71.4375 383.554688 68.542969 C 403.210938 54.789063 423.699219 39.214844 443.503906 25.203125 L 455.808594 16.507813 Z M 455.808594 -0.09375 "/>
</g>
<path style=" stroke:none;fill-rule:evenodd;fill:rgb(12.939453%,24.31488%,49.414063%);fill-opacity:1;" d="M 0.0820313 16.507813 C 3.558594 18.402344 53.539063 55.046875 60.238281 59.765625 L 84.324219 77.066406 C 101.664063 89.433594 131.34375 106.074219 151.09375 113.972656 C 174.148438 123.1875 194.164063 126.46875 221.617188 126.46875 L 221.617188 -0.09375 L 0.0820313 -0.09375 Z M 0.0820313 16.507813 "/>
</g>
</svg>
